<?xml version="1.0" encoding="utf-8"?>
<!-- Generator: Adobe Illustrator 26.1.0, SVG Export Plug-In . SVG Version: 6.00 Build 0)  -->
<svg version="1.1" id="Layer_1" xmlns="http://www.w3.org/2000/svg" xmlns:xlink="http://www.w3.org/1999/xlink" x="0px" y="0px"
	 viewBox="0 0 380.98 380.98" style="enable-background:new 0 0 380.98 380.98;" xml:space="preserve">
<style type="text/css">
	.st0{fill:url(#SVGID_1_);}
	.st1{fill:#FFFFFF;stroke:#17007F;stroke-width:5;stroke-miterlimit:10;}
</style>
<g>
	
		<linearGradient id="SVGID_1_" gradientUnits="userSpaceOnUse" x1="3832.4465" y1="10137.2383" x2="4213.4224" y2="10137.2383" gradientTransform="matrix(6.123234e-17 1 -1 6.123234e-17 10327.7266 -3832.4465)">
		<stop  offset="0" style="stop-color:#7CDEF2"/>
		<stop  offset="0.3491" style="stop-color:#7CDEF3"/>
		<stop  offset="0.4565" style="stop-color:#96DDCF"/>
		<stop  offset="0.641" style="stop-color:#BDDB96"/>
		<stop  offset="0.7994" style="stop-color:#DBDA6D"/>
		<stop  offset="0.9238" style="stop-color:#ECD953"/>
		<stop  offset="0.9988" style="stop-color:#F3D94A"/>
	</linearGradient>
	<path class="st0" d="M380.98,37.5v305.98c0,20.71-16.79,37.5-37.5,37.5H37.5c-20.71,0-37.5-16.79-37.5-37.5V37.5
		C0,16.79,16.79,0,37.5,0h305.98C364.19,0,380.98,16.79,380.98,37.5z"/>
	<g>
		<g>
			<path class="st1" d="M183.49,249.44c-0.1,0.22-0.19,0.44-0.29,0.66c-1.08-0.78-2.21-1.5-3.37-2.17L183.49,249.44z"/>
		</g>
		<g>
			<path class="st1" d="M183.49,249.44c-0.1,0.22-0.19,0.44-0.29,0.66c-1.08-0.78-2.21-1.5-3.37-2.17L183.49,249.44z"/>
		</g>
		<g>
			<path class="st1" d="M277.63,142.47c-5.95,24.72-37.08,76.88-36.82,102.53c0.07,7.21,4.93,14.14,4.15,21.43
				c-0.74,6.82-6.46,10.4-12.16,7.82c-4.37-1.99-7.49-7.97-12.73-8.11c-4.76-0.12-6.92,2.8-10.41,5.16
				c-7.41,5.03-11.28,1.19-13.3-4.18c-2.6-6.91-7.25-12.77-13.16-17.02c-3.16,7.15-6.32,14.3-9.48,21.45
				c-5.67,12.82-10.77,25.62-15.72,38.72c-2.25,5.94-6.04,11.93-11.95,14.76c-7.77,3.73-17.06-2.24-18.54-10.06
				c-2.82-14.9,9.3-33.35,15.18-46.45c4.53-10.1,9.06-20.19,13.59-30.28c-9.51-3.8-20.22-3.8-29.56,0.44
				c-5.23,2.37-10.68,2.35-12.37-6.46c-0.79-4.13-0.26-7.72-3.72-11c-3.79-3.6-10.23-1.58-14.73-3.27
				c-5.85-2.2-7.36-8.78-3.07-14.12c4.6-5.71,13.6-8.27,18.09-12.22c30.08-26.42,28.26-70.98,48.53-102.33
				c17.58-27.19,53.23-42.39,83.28-30.25c2.39,0.97,4.72,2.09,6.96,3.36c12.13,6.89,22.01,18.01,27.02,31.08
				C282.62,108.9,281.43,126.66,277.63,142.47z"/>
		</g>
	</g>
</g>
</svg>
